# xmcd
# Track frame offsets:
# 150
# 12715
# 26358
# 43982
# 60251
# 76317
# 87999
# 106202
# 117614
# 131590
# 143704
# 155525
# 169746
# 184951
# 196545
# 208400
# 218405
# 230949
#
# Disc length: 3240 seconds
# Revision: 0
# Processed by: cddbd v1.5.1PL2 Copyright (c) Steve Scherf et al.
# Submitted via: VisiTrax 2.10.0.248 - For more info visit www.synapsa.com
#
DISCID=fe0ca612
DTITLE=Various Artist - Time Life Gettin' More Rowdy
DYEAR=2005
DGENRE=
TTITLE0=Dwight Yokam - Honky Tonk Man
TTITLE1=Travis Tritt - T-R-O-U-B-L-E
TTITLE2=David Allan Coe - Son Of The South
TTITLE3=Waylon Jennings - I Ain't Living Long Like This
TTITLE4=Willie Nelson - Whiskey River
TTITLE5=Moe Brandy and Joe Stampley - Just Good Ol' Boys
TTITLE6=Charlie Daniels Band - Long Haired Country Boy
TTITLE7=Waylon Jennings and Willie Nelson - Mammas Don't Let Your Babies Gro
TTITLE7=w Up To Be Cowboys
TTITLE8=Mark Chesnutt - Bubba Shot The Jukebox
TTITLE9=Hank Williams Jr. - Born To Boogie
TTITLE10=Johnny Paycheck - Take This Job and Shove It
TTITLE11=Hank Williams Jr. - Whiskey Bent and Hell Bound
TTITLE12=Sammy Kershaw - Third Rate Romance
TTITLE13=Steve Earle - Guitar Town
TTITLE14=Marty Stuart - Hillbilly Rock
TTITLE15=Billy Joe Shaver - I Been To Georgia On A Fast Train
TTITLE16=Gary Stewart - She's Actin' Single (I'm Drinkin' Doubles)
TTITLE17=John Anderson - Wild and Blue
EXTD=
EXTT0=
EXTT1=
EXTT2=
EXTT3=
EXTT4=
EXTT5=
EXTT6=
EXTT7=
EXTT8=
EXTT9=
EXTT10=
EXTT11=
EXTT12=
EXTT13=
EXTT14=
EXTT15=
EXTT16=
EXTT17=
PLAYORDER=
